<?xml version="1.0" encoding="UTF-8"?>
<svg id="Layer_1" xmlns="http://www.w3.org/2000/svg" version="1.1" viewBox="0 0 66 65">
  <!-- Generator: Adobe Illustrator 29.3.0, SVG Export Plug-In . SVG Version: 2.1.0 Build 146)  -->
  <defs>
    <style>
      .st0 {
        fill: #3490dc;
      }

      .st1 {
        fill: #f2d4b7;
      }

      .st2 {
        fill: #f6f8ff;
      }
    </style>
  </defs>
  <rect class="st2" y="0" width="66" height="65" rx="10" ry="10"/>
  <path class="st1" d="M43.2,20.6h-22c-.8,0-1.3-.5-1.3-1.3s.5-1.3,1.3-1.3h22c.8,0,1.3.5,1.3,1.3s-.5,1.3-1.3,1.3Z"/>
  <path class="st1" d="M50.6,50.4l-3.6-3.6c.9-1.3,1.3-2.7,1.3-4.2,0-4.2-3.5-7.7-7.6-7.7s-7.7,3.4-7.7,7.7,3.5,7.7,7.6,7.7,3.1-.5,4.2-1.3l3.6,3.6c.5.5,1.5.5,2.1,0,.6-.6.6-1.7.1-2.2Z"/>
  <path class="st0" d="M30.5,42.3c0-5.7,4.7-10.3,10.4-10.3s2.8.3,4.1.8v-9.8c0-.8-.5-1.3-1.3-1.3h-22.4c-1.4,0-2.6-1.2-2.6-2.6s1.2-2.6,2.6-2.6h22.4c.8,0,1.3-.5,1.3-1.3s-.5-1.3-1.3-1.3h-22.4c-2.9,0-5.3,2.3-5.3,5.1v25.7c0,2.8,2.4,5.1,5.3,5.1h12.9c-2.2-1.9-3.7-4.6-3.7-7.7Z"/>
</svg>