<?xml version="1.0" encoding="UTF-8"?>
<svg id="Layer_1" xmlns="http://www.w3.org/2000/svg" xmlns:xlink="http://www.w3.org/1999/xlink" version="1.1" viewBox="0 0 127 126">
  <!-- Generator: Adobe Illustrator 29.3.0, SVG Export Plug-In . SVG Version: 2.1.0 Build 146)  -->
  <defs>
    <style>
      .st0 {
        fill: #ff9494;
      }

      .st1 {
        fill: url(#linear-gradient);
      }

      .st2 {
        fill: #f7dece;
      }

      .st3 {
        fill: #3490dc;
      }

      .st4 {
        fill: #c1694f;
      }

      .st5 {
        fill: #662113;
      }
    </style>
    <linearGradient id="linear-gradient" x1="63.6" y1="125.9" x2="63.6" y2=".2" gradientTransform="translate(0 125.9) scale(1 -1)" gradientUnits="userSpaceOnUse">
      <stop offset="0" stop-color="#afc1dc"/>
      <stop offset="1" stop-color="#e2e5ed"/>
    </linearGradient>
  </defs>
  <circle class="st1" cx="63.6" cy="62.8" r="62.8"/>
  <path class="st2" d="M78.7,46.3c-11.3,0-35.8-2.9-35.8-2.9,0,0-4.9,5.4-7.7,8.2-5.3,5.3-4.8,11.9-5.5,20.3.9,23.1,15.7,41.5,33.9,41.5s32.8-18.2,33.8-41.1c-1-10.3-7.9-25.9-18.7-25.9Z"/>
  <path class="st4" d="M63.6,102.1c-6.6,0-10.1-3.3-10.5-3.7-.5-.5-.8-1.2-.8-2s.3-1.5.8-2c.5-.5,1.2-.8,2-.8.7,0,1.5.3,2,.8.1.1,2.3,2,6.5,2s6.4-2,6.5-2c.5-.5,1.3-.8,2-.8.7,0,1.5.3,2,.9.5.5.8,1.2.8,2,0,.7-.3,1.4-.8,2-.4.4-3.8,3.7-10.5,3.7ZM66.4,87.9h-5.7c-.8,0-1.5-.3-2-.8-.5-.5-.8-1.2-.8-2s.3-1.5.8-2c.5-.5,1.2-.8,2-.8h5.7c.8,0,1.5.3,2,.8.5.5.8,1.2.8,2s-.3,1.5-.8,2c-.5.5-1.2.8-2,.8Z"/>
  <path class="st5" d="M49.4,76.6c-.8,0-1.5-.3-2-.8-.5-.5-.8-1.2-.8-2v-5.7c0-.8.3-1.5.8-2,.5-.5,1.2-.8,2-.8s1.5.3,2,.8c.5.5.8,1.2.8,2v5.7c0,.8-.3,1.5-.8,2-.5.5-1.2.8-2,.8ZM77.7,76.6c-.8,0-1.5-.3-2-.8-.5-.5-.8-1.2-.8-2v-5.7c0-.8.3-1.5.8-2,.5-.5,1.2-.8,2-.8s1.5.3,2,.8c.5.5.8,1.2.8,2v5.7c0,.8-.3,1.5-.8,2-.5.5-1.2.8-2,.8Z"/>
  <path class="st3" d="M63.6,23.1c23.2,0,37.7,17.1,37.7,31.4s-2.9,20-5.8,14.3c-2.9-5.7-5.8-14.2-5.8-14.2,0,0-9.8,6.4-17.5-2.9,0,0,3,17.1-14.4,0,0,0,2.9,11.4-14.5-2.9,0,0-8.7,5.7-11.6,20-.8,4-5.8,0-5.8-14.3,0-14.3,11.6-31.4,37.7-31.4Z"/>
  <circle class="st0" cx="79.7" cy="87.7" r="1.1"/>
  <circle class="st0" cx="81.3" cy="90.4" r=".5"/>
  <circle class="st0" cx="79.2" cy="93.7" r="1.6"/>
  <circle class="st0" cx="84" cy="94.2" r="1.1"/>
  <circle class="st0" cx="86.7" cy="90.4" r="1.6"/>
</svg>