<?xml version="1.0" encoding="UTF-8"?>
<svg id="Layer_1" xmlns="http://www.w3.org/2000/svg" version="1.1" viewBox="0 0 66 65">
  <!-- Generator: Adobe Illustrator 29.3.0, SVG Export Plug-In . SVG Version: 2.1.0 Build 146)  -->
  <defs>
    <style>
      .st0 {
        fill: #f7dece;
      }

      .st1 {
        fill: #3490dc;
      }

      .st2 {
        fill: #fff;
      }

      .st3 {
        fill: #1064e2;
      }

      .st4 {
        fill: #f6f8ff;
      }

      .st5 {
        fill: #6d4c41;
      }

      .st6 {
        fill: none;
        stroke: #fff;
        stroke-miterlimit: 10;
        stroke-width: 2.2px;
      }
    </style>
  </defs>
  <rect class="st4" y="0" width="66" height="65" rx="10" ry="10"/>
  <path class="st1" d="M41.6,23.9c2.1-.5,4.8-2.5,5.2-3.5.2-.6-1-1.5-1.3-1.9-.7-.8-.4-1.3-.2-2.3.3-1.2-.4-2.4-1.5-2.9-1.1-.5-2.4-.3-3.5.1-1.1.5-2,1.3-2.9,2-.7-.4-1.7-2.3-3.5-1.1-1.2.8-1.3,2.6-1.1,4.1.4,3.3,1.2,5.1,2.7,5.5,2,.6,4.1.3,6.1-.2Z"/>
  <path class="st3" d="M44.9,14.3c-.3,4.5-4.7,7.5-6.7,8.8l1.4,1.2s.9,0,2-.4c2-.6,5-2.4,5.2-3.5.3-1.6-1.3-1.2-1.7-2.4-.2-.6.9-1.9-.2-3.7ZM37.4,15.5s-.8-.8-1.4-1.2c-.3.5-.5,1.1-.6,1.7-.2,1.1,0,2.6.4,3.7,0,.2.3.1.3,0,.4-2.4,1.2-4.3,1.2-4.3Z"/>
  <path class="st1" d="M31.9,23.5s-9.6,1-13.9,9.4c-4.3,8.3-.6,13.4,3.2,15.2,3.9,1.8,13.7,2.5,20.1,1,6.4-1.5,8-4.7,7.7-7.7-.4-4.4-4.5-7.1-4.5-7.1,0,0,.2-5.5-4.1-9-3.8-3.1-8.5-1.7-8.5-1.7Z"/>
  <path class="st2" d="M35.8,37.5c-2.1-2.6-4.5-2.9-5.3-3.9-.4-.5-.7-1-.6-1.7.1-.7.9-1.1,1.5-1.3.7-.1,2.4,0,3.8,1.3.3.3.2.8.2,1.3,0,1,1.3,1.9,2.5,1.1,1.1-.8.3-2.6-.5-3.5-.5-.7-2.5-2.1-4.9-2.3-.7,0-3.4-.5-5,2.6-.5.9-.6,3,1.8,4.8.5.4,3.1,1.7,3.8,2.6,1.3,1.5.4,2.8-.6,3-2.7.5-4.2-1-4.5-1.8-.2-.6,0-1.2-.2-1.7-.3-.5-.8-.8-1.4-.6-1.9.6-1.3,2.6-.4,3.8.9,1.2,2,1.9,3.2,2.3,4.6,1.5,6.8-.9,7.2-2.6.3-1.3.3-2.4-.6-3.4Z"/>
  <path class="st6" d="M34.7,26.8c-3.9,8.3-4.6,18.8-4.6,18.8"/>
  <path class="st5" d="M37.9,21.6c2.6.8,3.2,3.2,3,3.8-.2.8-3.1-2.2-7.4-2-1.5,0-1.1-.9-.4-1.4.9-.7,2.4-1.2,4.8-.5Z"/>
  <path class="st0" d="M37.9,21.6c2.6.8,3.2,3.2,3,3.8-.2.8-3.1-2.2-7.4-2-1.5,0-1.1-.9-.4-1.4.9-.7,2.4-1.2,4.8-.5Z"/>
  <path class="st3" d="M42.5,29.9c.3-.2,1.4.2,1.7,2.3.2,1,.2,2.1.2,2.1,0,0-1.3-1.2-1.7-2-.5-1-.7-2-.2-2.4Z"/>
</svg>