<?xml version="1.0" encoding="UTF-8"?>
<svg id="Layer_1" xmlns="http://www.w3.org/2000/svg" xmlns:xlink="http://www.w3.org/1999/xlink" version="1.1" viewBox="0 0 126 126">
  <!-- Generator: Adobe Illustrator 29.3.0, SVG Export Plug-In . SVG Version: 2.1.0 Build 146)  -->
  <defs>
    <style>
      .st0 {
        mask: url(#mask);
      }

      .st1 {
        fill: url(#linear-gradient);
      }

      .st2 {
        fill: #f7dece;
      }

      .st3 {
        fill: #3490dc;
      }

      .st4 {
        fill: #fff;
      }
    </style>
    <linearGradient id="linear-gradient" x1="63.2" y1="125.9" x2="63.2" y2=".2" gradientTransform="translate(0 125.9) scale(1 -1)" gradientUnits="userSpaceOnUse">
      <stop offset="0" stop-color="#afc1dc"/>
      <stop offset="1" stop-color="#e2e5ed"/>
    </linearGradient>
    <mask id="mask" x="29.7" y="23" width="67.3" height="83.2" maskUnits="userSpaceOnUse">
      <g id="mask0_4741_2378">
        <path class="st4" d="M64.6,87.6c0-.8-.3-1.5-.9-2-.5-.3-.9-.7-1.2-1.1-.2-.2-.3-.5-.5-.7-.1-.3-.3-.6-.4-.9-.1-.3-.2-.7-.2-1,0-.4,0-.7-.1-1.1,0-.4,0-.8,0-1.1s0-.6,0-.9v-13.2c0-1.3-.4-2.6-1.6-3.8-2.6-2.6-6.7-1.6-6.9-1.7l-9.2,2.2c2.4,3.2,5.7,5.8,9.7,7.3v3.4c-13.7,3.9-23.6,15.7-23.6,32.4h22v-2c0-1,0-2,.2-2.8.1-.9.3-1.7.5-2.4.2-.5.4-.9.6-1.4.3-.6.7-1.1,1.1-1.5.2-.3,2-2.3,4.6-2.3,4.2,0,5.9-2.2,5.9-5.6Z"/>
        <path class="st2" d="M71.9,72.7v-5.1c3.9-2.4,7.6-9.8,7.6-18.8v-5.8c-.6-11.6-10.5-20.6-22.1-20.1-11.2.5-20,9.8-20.1,20.8l-4.6,6.4c-.4.5-.6,1.1-.3,1.6.3.6,1,.7,1.5.8l3.8.6.4,3.6s14.8,0,17.2,0c10.1,0,9.5,2.7,9.5,8.7v10.8c0,.3,0,.6,0,.9s0,.7,0,1c0,.6.6,1.3.7,1.5,0,0,.1.1.2.2,0,0,.2.1.3.2.2,0,.3.2.6.2.3,0,.6.2,1,.2.3,0,.7,0,1.1,0,.7,0,1.6,0,2.4.2,5.6,1.3,9.5,10,3.9,16.7-5.6,6.8-13.7,4.4-17,2.5-.8-.5-2.2-1.2-2.5-.2-.1.4-.2.9-.2,1.5,0,.6-.1,1.3-.1,2.1v2h41.6c0-17.3-10.6-29.4-25-32.8Z"/>
      </g>
    </mask>
  </defs>
  <circle class="st1" cx="63.2" cy="62.8" r="62.8"/>
  <path class="st2" d="M64.6,87.6c0-.8-.3-1.5-.9-2-.5-.3-.9-.7-1.2-1.1-.2-.2-.3-.5-.5-.7-.1-.3-.3-.6-.4-.9-.1-.3-.2-.7-.2-1,0-.4,0-.7-.1-1.1,0-.4,0-.8,0-1.1s0-.6,0-.9v-13.2c0-1.3-.4-2.6-1.6-3.8-2.6-2.6-6.7-1.6-6.9-1.7l-9.2,2.2c2.4,3.2,5.7,5.8,9.7,7.3v3.4c-13.7,3.9-23.6,15.7-23.6,32.4h22v-2c0-1,0-2,.2-2.8.1-.9.3-1.7.5-2.4.2-.5.3-.9.6-1.4.3-.6.7-1.1,1.1-1.5.2-.3,2-2.3,4.6-2.3,4.2,0,5.9-2.2,5.9-5.6Z"/>
  <path class="st2" d="M71.9,72.7v-5.1c3.9-2.4,7.6-9.8,7.6-18.8v-5.8c-.6-11.6-10.5-20.6-22.1-20.1-11.2.5-20,9.8-20.1,20.8l-4.6,6.4c-.4.5-.6,1.1-.3,1.6.3.6,1,.7,1.5.8l3.8.6.4,3.6s14.8,0,17.2,0c10.1,0,9.5,2.7,9.5,8.7v10.8c0,.3,0,.6,0,.9s0,.7,0,1c0,.6.6,1.3.7,1.5,0,0,.1.1.2.2,0,0,.2.1.3.2.2,0,.3.2.6.2.3,0,.6.2,1,.2.3,0,.7,0,1.1,0,.7,0,1.6,0,2.4.2,5.6,1.3,9.5,10,3.9,16.7-5.6,6.8-13.7,4.4-17,2.5-.8-.5-2.2-1.2-2.5-.2-.1.4-.2.9-.2,1.5,0,.6-.1,1.3-.1,2.1v2h41.6c0-17.3-10.6-29.4-25-32.8Z"/>
  <g class="st0">
    <rect class="st3" x="29.7" y="72.6" width="67.3" height="33.6"/>
  </g>
</svg>