<?xml version="1.0" encoding="UTF-8"?>
<svg id="Layer_1" xmlns="http://www.w3.org/2000/svg" xmlns:xlink="http://www.w3.org/1999/xlink" version="1.1" viewBox="0 0 126 126">
  <!-- Generator: Adobe Illustrator 29.3.0, SVG Export Plug-In . SVG Version: 2.1.0 Build 146)  -->
  <defs>
    <style>
      .st0 {
        fill: url(#linear-gradient);
      }

      .st1 {
        fill: #f7dece;
      }

      .st2 {
        fill: #3490dc;
      }
    </style>
    <linearGradient id="linear-gradient" x1="62.8" y1="125.9" x2="62.8" y2=".2" gradientTransform="translate(0 125.9) scale(1 -1)" gradientUnits="userSpaceOnUse">
      <stop offset="0" stop-color="#afc1dc"/>
      <stop offset="1" stop-color="#e2e5ed"/>
    </linearGradient>
  </defs>
  <circle class="st0" cx="62.8" cy="62.8" r="62.8"/>
  <path class="st1" d="M47.2,48.2h.5c.2,0,.4-.1.5-.3h0c.5,1.8,1.1,3.7,1.9,5.6,1,2.6,2,4.7,3.1,6.7l-.2-.3c0,1.4-.2,2.8-.4,4.2,0,.9-.2,1.7-.5,2.4h0c0,0-.1,7.9-.1,7.9,0,5.2,3.6,9.6,8.5,10.7h0c.2-.5.8-.9,1.4-.9h2.2c.6,0,1.2.4,1.4.9h0c4.9-1.2,8.6-5.5,8.6-10.7,0,0-.1-8-.2-8-.2-.7-.4-1.5-.5-2.3h0c-.1-1.5-.2-2.9-.4-4.3,1-1.7,1.9-3.8,2.8-6v-.4c.9-2,1.5-3.8,2.1-5.6.2.1.3.2.5.2h.5c.7.1,1.2-.4,1.3-1.3l.6-7.4h0c0-.6-.5-1.2-1.1-1.2h0c.2-1.1.2-2.3.2-3.6,0-2.8-.4-5.4-1.2-7.9v.2c-2.2-4.9-6.6-8.4-11.9-9.4h-.1c-1.1-.3-2.5-.4-3.8-.4h0c-1.4,0-2.7.2-4,.5h.1c-5.4,1-9.8,4.5-12,9.3h0c-.7,2.4-1.1,5.1-1.1,7.8s0,2.5.3,3.8h0c-.6,0-1.1.4-1.1,1.1h0s.6,7.5.6,7.5c0,.9.6,1.4,1.3,1.3h0Z"/>
  <path class="st2" d="M104.5,97.4c-.3-11.7-1.4-14.3-2.1-16.1-.2-.7-.5-5.6-8.5-8.7-4.9-1.9-11.3-2-16.7-4.3v6.3c0,6.8-4.9,12.5-11.3,13.7h0c-.1.7-.7,1.2-1.4,1.2h0v4.8c0,4.7,3.8,8.4,8.4,8.4s8.4-3.8,8.4-8.4v-3.3c-2.3-.4-4.1-2.3-4.1-4.8s2.2-4.8,4.8-4.8,4.8,2.2,4.8,4.8-1.4,3.9-3.2,4.5h0v3.7c0,5.9-4.8,10.7-10.7,10.7s-10.7-4.8-10.7-10.7v-.2h0s0-4.8,0-4.8c-.7,0-1.2-.6-1.3-1.2h0c-6.5-1.3-11.4-6.9-11.4-13.7v-6.4c-5.4,2.3-11.8,2.4-16.8,4.3-8.1,3.2-8.2,8-8.5,8.7-.6,1.8-1.8,4.4-2.1,16.1,0,1.5,0,3.9,4.6,6,10.1,4,23.1,5.2,36,6.1h1.2c12.9-.9,25.9-2.1,36-6.1,4.6-2.1,4.7-4.4,4.6-6ZM48,92.6h-4.8v4.8h-3.4v-4.8h-4.8v-3.4h4.8v-4.8h3.4v4.8h4.8v3.4Z"/>
  <path d="M84.6,86.2c0-1.4-1.2-2.6-2.6-2.6s-2.6,1.2-2.6,2.6,1.2,2.6,2.6,2.6,2.6-1.2,2.6-2.6Z"/>
</svg>