<?xml version="1.0" encoding="UTF-8"?>
<svg id="Layer_1" xmlns="http://www.w3.org/2000/svg" xmlns:xlink="http://www.w3.org/1999/xlink" version="1.1" viewBox="0 0 127 126">
  <!-- Generator: Adobe Illustrator 29.3.0, SVG Export Plug-In . SVG Version: 2.1.0 Build 146)  -->
  <defs>
    <style>
      .st0 {
        mask: url(#mask);
      }

      .st1 {
        fill: url(#linear-gradient1);
      }

      .st2 {
        fill: #292f33;
      }

      .st3 {
        fill: url(#linear-gradient);
      }

      .st4 {
        fill: #f7dece;
      }

      .st5 {
        fill: #3490dc;
      }

      .st6 {
        fill: #bf6952;
      }

      .st7 {
        fill: #df1f32;
      }

      .st8 {
        fill: #0072db;
      }

      .st9 {
        fill: #e0aa94;
      }

      .st10 {
        fill: #eec2ad;
      }

      .st11 {
        fill: #662113;
      }
    </style>
    <linearGradient id="linear-gradient" x1="63.7" y1="125.9" x2="63.7" y2=".2" gradientTransform="translate(0 125.9) scale(1 -1)" gradientUnits="userSpaceOnUse">
      <stop offset="0" stop-color="#afc1dc"/>
      <stop offset="1" stop-color="#e2e5ed"/>
    </linearGradient>
    <linearGradient id="linear-gradient1" x1="63.7" y1="125.9" x2="63.7" y2=".2" gradientTransform="translate(0 125.9) scale(1 -1)" gradientUnits="userSpaceOnUse">
      <stop offset="0" stop-color="#afc1dc"/>
      <stop offset="1" stop-color="#e2e5ed"/>
    </linearGradient>
    <mask id="mask" x=".9" y="0" width="125.7" height="130.7" maskUnits="userSpaceOnUse">
      <g id="mask0_4741_2340">
        <circle class="st1" cx="63.7" cy="62.8" r="62.8"/>
      </g>
    </mask>
  </defs>
  <circle class="st3" cx="63.7" cy="62.8" r="62.8"/>
  <g class="st0">
    <g>
      <path class="st5" d="M77.7,65.9h-13c-5.2,0-9.7,4.5-9.7,9.7v55.1h31.1v-26.1l1.3-5.1v-23.9c0-5.2-4.5-9.7-9.7-9.7Z"/>
      <path class="st8" d="M65.6,73.8c-3.5,0-6.8,1.4-9.3,3.8-2.5,2.5-3.8,5.8-3.8,9.3s1.4,6.8,3.8,9.3c2.5,2.5,5.8,3.8,9.3,3.8v-26.2Z"/>
      <path class="st5" d="M65.7,76.7c-2.7,0-5.3,1.1-7.2,3-1.9,1.9-3,4.5-3,7.2s1.1,5.3,3,7.2c1.9,1.9,4.5,3,7.2,3v-20.4Z"/>
      <path class="st8" d="M71.5,73.8c-3.5,0-6.8,1.4-9.3,3.8-2.5,2.5-3.8,5.8-3.8,9.3s1.4,6.8,3.8,9.3c2.5,2.5,5.8,3.8,9.3,3.8v-26.2Z"/>
      <path class="st5" d="M71.5,76.7c-2.7,0-5.3,1.1-7.2,3-1.9,1.9-3,4.5-3,7.2s1.1,5.3,3,7.2c1.9,1.9,4.5,3,7.2,3v-20.4Z"/>
      <path class="st8" d="M47.6,130.7h20.9v-41.6c-1.3-.2-2.7-.4-4.1-.4-6.5,0-12.6,2.6-17.2,7.1-4.6,4.6-7.1,10.8-7.1,17.2s2.9,13.1,7.5,17.6Z"/>
      <path class="st5" d="M68,78.7v13.1c-1.2-.2-2.4-.3-3.5-.3-2.8,0-5.7.6-8.3,1.6-2.6,1.1-5,2.7-7,4.7-2,2-3.6,4.4-4.7,7-1.1,2.6-1.6,5.4-1.6,8.3,0,3.4.8,6.8,2.4,9.9,1.6,3.1,3.9,5.7,6.7,7.7h31.2v-60.3l-15.1,8.3Z"/>
      <path class="st8" d="M84.4,72.4l14.1,14.9-12.5,13.2v8.9s-11.5,7.8-11.5,7.8l-7.7-12.1,16.5-16.9-5.7-5.6,6.8-10.1Z"/>
      <path class="st5" d="M84.4,68.7l15.9,16.6s5.5,4.5,0,9.7c-3.3,3.2-24.1,17.2-24.1,17.2l-6.5-6.5,17.7-17.2-9.7-9.7,6.7-10.1Z"/>
      <path class="st10" d="M72.4,106c-3.3-1.6-6.4-1.3-9.4.4-1.4.8-2,2.4.2,2.9,2.2.5,9.2-3.4,9.2-3.4Z"/>
      <path class="st4" d="M76.9,111.6c.4,5.1-6.5,10-11.7,9.3-3.7-.4-7-10.5-2.6-11.8,4-1.2,5-4.7,9.7-3.4,3.7,1.1,4.4,3.9,4.5,5.9Z"/>
      <path class="st9" d="M73.4,113.6l-.6-1.3s-2.2,3.3-5.4,4.6c-2.4,1-4.4,1.1-5.4.9.4.9.5,1,1,1.5,3.3.1,8.5-1.6,10.4-5.8ZM66.9,113.5c2.9-2,3.7-3.9,3.7-3.9l-.9-1.2s-3.3,5.2-9.3,4.9c0,.7,0,.9.2,1.6.8,0,3.9.1,6.3-1.5Z"/>
      <path class="st2" d="M58.6,39.7c.4,1,.6,2,.6,3,0,1-.2,2.1-.6,3-.4,1-1,1.8-1.7,2.6-.7.7-1.6,1.3-2.6,1.7-1,.4-2,.6-3,.6-1,0-2.1-.2-3-.6-1-.4-1.8-1-2.6-1.7-.7-.7-1.3-1.6-1.7-2.6-.4-1-.6-2-.6-3,0-1,.2-2.1.6-3,.4-1,1-1.8,1.7-2.6.7-.7,1.6-1.3,2.6-1.7,1-.4,2-.6,3-.6,1,0,2.1.2,3,.6,1,.4,1.8,1,2.6,1.7.7.7,1.3,1.6,1.7,2.6Z"/>
      <path class="st4" d="M74.4,60.1c3.5-4.2,5.6-9.5,3.8-13.9l-3-7.2c-16.1,6.1-22.7-2.3-22.7-2.3,0,0,3.1,7.6-3.6,11.4l3.6,8.7c2.9,7.1,6.9,12.1,14,9.2l.2,1c.6,2.4.2,4.3,3.7,4.4,2.5,0,5.8-4.3,5.2-6.7l-1.2-4.8Z"/>
      <path class="st2" d="M93.1,41.5c2.4-6.4-3.4-11.3-8.3-11.8-3-.3-5.7,1.6-7,3.9-6-10-14.9-7.7-20.6-5.7-6,2.1-15,8.4-11.5,15.1,3.5,6.7,15.3,3.8,15.3,3.8l4.3,6.9c-1.1-5.9,2.8-7.2,4.6-5.9,1.9,1.4.6,5.7,1.5,7.4.9,1.7,3.9,4.1,3.9,4.1,1.8-2.4,7.7-10.4,5-20.2,1.1-.4,2.8-.1,4.2.6,3.5,1.8.7,10.8,5.6,13.6,4.6,2.7,7.4-1,7.4-1-4.7.2-6.5-4.6-4.2-10.7Z"/>
      <path class="st6" d="M55,60.1l-.9.4c0,0-.2,0-.3,0-.1,0-.2,0-.3,0,0,0-.2,0-.3-.2,0,0-.1-.2-.2-.3,0,0,0-.2,0-.3,0-.1,0-.2,0-.3,0,0,0-.2.2-.3,0,0,.2-.1.3-.2l.9-.4c0,0,.2,0,.3,0,.1,0,.2,0,.3,0,0,0,.2,0,.3.2,0,0,.1.2.2.3,0,0,0,.2,0,.3,0,.1,0,.2,0,.3,0,0-.1.2-.2.3,0,0-.2.1-.3.2Z"/>
      <path class="st11" d="M55.4,54c-.4.2-.8.2-1.2,0-.4-.2-.7-.5-.8-.8l-.6-1.4c-.2-.4-.2-.8,0-1.2s.5-.7.8-.8c.4-.2.8-.2,1.2,0,.4.2.7.5.8.8l.6,1.4c0,.2.1.4.1.6,0,.2,0,.4-.1.6,0,.2-.2.4-.3.5-.1.1-.3.3-.5.3Z"/>
      <path class="st7" d="M56.2,63.6c.7.9,1.5,1.6,2.3,2.1,3.1-1.8,3.3-4.5,3.3-4.5l-5.5,2.3h-.1Z"/>
    </g>
  </g>
</svg>