<?xml version="1.0" encoding="UTF-8"?>
<svg id="Layer_1" xmlns="http://www.w3.org/2000/svg" xmlns:xlink="http://www.w3.org/1999/xlink" version="1.1" viewBox="0 0 595.28 841.89">
  <!-- Generator: Adobe Illustrator 29.3.0, SVG Export Plug-In . SVG Version: 2.1.0 Build 146)  -->
  <defs>
    <style>
      .st0 {
        fill: url(#linear-gradient);
      }

      .st1 {
        fill: #1172ba;
      }

      .st2 {
        fill: #7fc347;
      }
    </style>
    <linearGradient id="linear-gradient" x1="189.59" y1="-3576.61" x2="189.59" y2="-3278.97" gradientTransform="translate(0 3920)" gradientUnits="userSpaceOnUse">
      <stop offset="0" stop-color="#2baae2"/>
      <stop offset=".25" stop-color="#2298d5"/>
      <stop offset=".73" stop-color="#187cc1"/>
      <stop offset="1" stop-color="#1172ba"/>
    </linearGradient>
  </defs>
  <path class="st1" d="M204.05,618.9h.02-.02Z"/>
  <path class="st2" d="M505.09,405.33h-89.08c7.08-27.9,8.46-57.78,3.31-86.04h0c60.31-13.34,93.04-67.42,84.42-110.79-12.41-62.49,39.78-81.53,39.78-81.53-108.14,10.05-163,50.29-190.76,90.38,0,0,0,0,0,0-11.99-7.37-25.63-13.29-41.02-17.37-115.87-30.76-191.13,26.36-223.18,51.09C54.14,277.65,0,280.46,0,280.46c12.47,5.52,31.99,7.71,61.89-2.3,67.27-22.53,155.7-101.55,277.12-33.76,49.09,27.41,71.19,94.16,66.07,163.85-.09,1.16-.17,2.32-.27,3.49-.12,1.42-.27,2.84-.41,4.27-.12,1.15-.23,2.31-.36,3.46-.16,1.43-.35,2.87-.54,4.31-.15,1.14-.29,2.29-.46,3.43-.21,1.46-.45,2.91-.68,4.37-.18,1.12-.35,2.24-.54,3.36-.26,1.48-.54,2.97-.82,4.45-.21,1.09-.4,2.18-.62,3.27-.31,1.52-.65,3.04-.98,4.56-11.84,53.92-40.1,105.53-84.94,137.83-.42.3-.84.6-1.26.89-1.57,1.11-3.15,2.19-4.76,3.25-.41.27-.81.54-1.22.81-1.89,1.23-3.81,2.42-5.76,3.58-.47.28-.95.55-1.42.83-1.61.94-3.25,1.86-4.89,2.75-.51.27-1.01.55-1.52.82-1.98,1.05-3.99,2.06-6.03,3.04-.54.26-1.09.51-1.64.76-1.64.77-3.29,1.51-4.97,2.23-12.39,5.33-25.7,9.38-39.94,11.89,0,0,0,0,0,0,0,0,35.04-.06,69.32-11.37h194.73c47.79,0,86.72-44.72,86.72-99.6s-38.94-99.6-86.72-99.6h0,0ZM394.05,256.54c-2.81-4.08-5.84-8.02-9.09-11.8,14.76-25.12,37.22-50.29,71.21-65.11,0,0-41.18,22.94-62.11,76.91h0ZM418.75,316.33c-1.96-9.81-4.71-19.41-8.29-28.64,3.62,8.67,6.19,17.87,8.29,28.64Z"/>
  <path class="st0" d="M245.35,277.6c-80.7-2.98-124.79,42.91-124.79,42.91,180.66-77.38,225.92,28.87,236.77,100.11-.14-.47-.3-.93-.45-1.39-.32-.96-.64-1.91-.98-2.85-.27-.75-.55-1.5-.84-2.23-.25-.63-.51-1.25-.77-1.87-.26-.6-.52-1.19-.78-1.77-.26-.58-.52-1.16-.8-1.73-.47-.98-.97-1.94-1.47-2.88-.1-.19-.19-.39-.29-.58h-.03c-22.89-41.72-78.42-49.62-136.63-25.31-63.82,26.65-151.75,18.94-200.27-37.66h0s28.09,61.81,85.31,77.95c-24.61,17.59-41.04,48.94-41.04,84.62,0,54.88,38.9,99.6,86.68,99.6h88.05c-12.46,10.66-28.9,14.36-28.94,14.37.05,0,23.2-2.71,51.73-14.37h.03c.25-.1.51-.21.77-.32.07-.03.14-.06.21-.09,1.14-.47,2.29-.96,3.45-1.46.05-.02.1-.05.16-.07,1.18-.51,2.36-1.04,3.55-1.58.03-.01.06-.03.08-.04,1.21-.55,2.43-1.12,3.66-1.71,0,0,0,0,0,0,36.3-17.39,77.04-49.46,89.76-107.73,1.21-5.56,2.14-10.92,2.85-16.11-.01.19-.02.3-.02.3,22.23-99.27-34.23-195.15-114.94-198.12h-.01ZM204.81,405.33c59.71-17.66,113.06-27.63,139.46,0h-139.46Z"/>
</svg>