<?xml version="1.0" encoding="UTF-8"?>
<svg id="Layer_1" xmlns="http://www.w3.org/2000/svg" version="1.1" viewBox="0 0 22 22">
  <!-- Generator: Adobe Illustrator 29.3.0, SVG Export Plug-In . SVG Version: 2.1.0 Build 146)  -->
  <defs>
    <style>
      .st0, .st1 {
        fill: #3490dc;
      }

      .st1 {
        fill-rule: evenodd;
      }
    </style>
  </defs>
  <path class="st0" d="M10.7,16.6l5.5-3.2-5.5-3.2v2h-4.8v2.4h4.8v2Z"/>
  <path class="st0" d="M6.1,4.9c-.7,0-1.2.5-1.2,1.2s.5,1.2,1.2,1.2h9.8c.7,0,1.2-.5,1.2-1.2s-.5-1.2-1.2-1.2H6.1Z"/>
  <path class="st1" d="M3.7,0C1.6,0,0,1.6,0,3.7v14.7c0,2,1.6,3.7,3.7,3.7h14.7c2,0,3.7-1.6,3.7-3.7V3.7C22,1.6,20.4,0,18.3,0H3.7ZM18.3,2.4H3.7c-.7,0-1.2.5-1.2,1.2v14.7c0,.7.5,1.2,1.2,1.2h14.7c.7,0,1.2-.5,1.2-1.2V3.7c0-.7-.5-1.2-1.2-1.2Z"/>
</svg>