<?xml version="1.0" encoding="UTF-8"?>
<svg id="Layer_1" xmlns="http://www.w3.org/2000/svg" xmlns:xlink="http://www.w3.org/1999/xlink" version="1.1" viewBox="0 0 5000 5000">
  <!-- Generator: Adobe Illustrator 29.3.0, SVG Export Plug-In . SVG Version: 2.1.0 Build 146)  -->
  <defs>
    <style>
      .st0 {
        fill: url(#linear-gradient);
      }

      .st1 {
        fill: #0071bc;
      }

      .st2 {
        fill: #fff;
      }

      .st3 {
        fill: #7ac943;
      }
    </style>
    <linearGradient id="linear-gradient" x1="2201.27" y1="2668.48" x2="2201.27" y2="1394.92" gradientTransform="translate(0 5000) scale(1 -1)" gradientUnits="userSpaceOnUse">
      <stop offset="0" stop-color="#29abe2"/>
      <stop offset=".25" stop-color="#1c98d6"/>
      <stop offset=".73" stop-color="#077bc3"/>
      <stop offset="1" stop-color="#0071bc"/>
    </linearGradient>
  </defs>
  <rect class="st2" width="5000" height="5000"/>
  <g>
    <path class="st1" d="M2263.66,3510.37h.1-.1Z"/>
    <path class="st3" d="M3562.17,2596.54h-384.25c30.53-119.4,36.5-247.23,14.28-368.15v.02c260.16-57.09,401.31-288.48,364.15-474.08-53.54-267.37,171.61-348.85,171.61-348.85-466.46,43-703.1,215.2-822.85,386.71.01,0,.03.02.04.02-51.73-31.53-110.54-56.86-176.94-74.34-499.8-131.6-824.44,112.77-962.67,218.62-148.53,113.74-382.06,125.79-382.06,125.79,53.77,23.62,137.98,33,266.98-9.86,290.16-96.41,671.62-434.51,1195.36-144.45,211.74,117.27,307.09,402.9,285,701.07-.37,4.97-.72,9.94-1.15,14.92-.53,6.08-1.16,12.17-1.79,18.26-.51,4.94-.99,9.87-1.56,14.81-.71,6.14-1.53,12.29-2.35,18.43-.65,4.89-1.26,9.78-1.97,14.66-.9,6.23-1.92,12.47-2.93,18.7-.77,4.79-1.5,9.59-2.34,14.38-1.11,6.35-2.34,12.69-3.55,19.03-.89,4.67-1.73,9.34-2.68,13.99-1.33,6.52-2.79,13.02-4.23,19.53-51.09,230.72-172.97,451.53-366.37,589.75-1.8,1.29-3.64,2.55-5.45,3.82-6.76,4.74-13.6,9.38-20.53,13.92-1.75,1.15-3.49,2.32-5.25,3.46-8.17,5.25-16.45,10.36-24.85,15.32-2.02,1.19-4.08,2.35-6.11,3.53-6.96,4.02-14,7.94-21.11,11.76-2.18,1.17-4.35,2.37-6.55,3.52-8.55,4.48-17.21,8.81-25.99,12.99-2.34,1.12-4.72,2.18-7.08,3.27-7.07,3.28-14.21,6.45-21.42,9.53-53.45,22.8-110.85,40.13-172.3,50.89,0,.01-.02.02-.03.04,0,0,151.13-.27,298.99-48.65h839.98c206.12,0,374.08-191.36,374.08-426.18s-167.96-426.18-374.08-426.18h-.03ZM3083.2,1959.91c-12.13-17.44-25.2-34.3-39.23-50.49,63.65-107.47,160.55-215.18,307.15-278.58,0,0-177.64,98.14-267.92,329.07ZM3189.74,2215.73c-8.44-41.98-20.3-83.05-35.77-122.56,15.61,37.11,26.72,76.48,35.77,122.56Z"/>
    <path class="st0" d="M2441.79,2050.05c-348.1-12.74-538.28,183.59-538.28,183.59,779.28-331.08,974.48,123.55,1021.31,428.37-.62-2.01-1.3-3.97-1.95-5.95-1.36-4.12-2.76-8.19-4.24-12.19-1.18-3.21-2.38-6.42-3.63-9.56-1.08-2.69-2.21-5.34-3.34-7.98-1.1-2.56-2.23-5.08-3.38-7.59-1.14-2.48-2.25-4.97-3.44-7.4-2.04-4.19-4.17-8.29-6.36-12.33-.44-.81-.83-1.66-1.27-2.47h-.12c-98.75-178.51-338.28-212.3-589.35-108.28-275.29,114.05-654.56,81.04-863.86-161.14h0s121.18,264.47,367.97,333.52c-106.15,75.27-177.03,209.39-177.03,362.08,0,234.82,167.81,426.18,373.9,426.18h379.81c-53.73,45.61-124.66,61.43-124.82,61.47.2-.02,100.07-11.6,223.13-61.47h.13c1.09-.44,2.21-.92,3.31-1.37.3-.12.61-.26.91-.38,4.92-2.02,9.87-4.09,14.86-6.24.23-.1.45-.2.68-.3,5.07-2.19,10.18-4.44,15.31-6.76.12-.05.24-.11.36-.16,5.24-2.37,10.5-4.81,15.79-7.32.01,0,.03-.02.04-.02,156.59-74.39,332.33-211.61,387.18-460.94,5.24-23.81,9.23-46.72,12.29-68.92-.05.81-.08,1.28-.08,1.28,95.88-424.77-147.67-834.99-495.78-847.72h-.05ZM2266.94,2596.54c257.54-75.57,487.66-118.22,601.56,0h-601.56Z"/>
  </g>
</svg>