<?xml version="1.0" encoding="UTF-8"?>
<svg id="Layer_1" xmlns="http://www.w3.org/2000/svg" version="1.1" viewBox="0 0 66 66">
  <!-- Generator: Adobe Illustrator 29.3.0, SVG Export Plug-In . SVG Version: 2.1.0 Build 146)  -->
  <defs>
    <style>
      .st0 {
        fill: #404040;
      }

      .st1 {
        fill: #e6af78;
        fill-opacity: .6;
      }

      .st2 {
        fill: #f7dece;
      }

      .st3 {
        fill: #3490dc;
      }

      .st4 {
        fill: #7f9bff;
      }

      .st5 {
        fill: #242424;
      }

      .st6 {
        fill: #d29b6e;
        fill-opacity: .3;
      }

      .st7 {
        fill: #f2d4b7;
      }

      .st8 {
        fill: #f6f8ff;
      }
    </style>
  </defs>
  <rect class="st8" y="0" width="66" height="66" rx="10" ry="10"/>
  <path class="st1" d="M39.9,41.8v-5.4h-14.3v5.4l7.2,6.2,7.2-6.2Z"/>
  <path class="st3" d="M51,44.4l-9.9-2.3c-.1,0-.3,0-.4-.2l-8,4.5-7.7-4.8c-.2.2-.4.3-.7.4l-9.9,2.3c-1.4.3-2.5,1.6-2.5,3v6.1c0,.9.7,1.6,1.6,1.6h38.3c.9,0,1.6-.7,1.6-1.6v-6.1c0-1.4-1-2.7-2.5-3Z"/>
  <path class="st6" d="M25.6,36.4v5.7c9,3.2,14.3-4.8,14.3-4.8v-1h-14.3Z"/>
  <path class="st2" d="M22.4,18.5l.7,14.9c0,1.4.8,2.7,1.9,3.5l3.3,2.4c.8.6,1.8.9,2.9.9h3.2c1,0,2-.3,2.9-.9l3.3-2.4c1.1-.8,1.8-2.1,1.9-3.5l.7-14.9h-20.7Z"/>
  <path class="st7" d="M30.3,21.6c3.2,0,8-.8,9.1-3.1h-17.1l.7,14.9c0,1.4.8,2.7,1.9,3.5l3.3,2.4c.8.6,1.8.9,2.9.9h1.6c-1.6,0-4.8-3.1-4.8-7v-9.3c0-.8.8-2.3,2.4-2.3Z"/>
  <path class="st3" d="M17.9,50l-5.2-4.5c-.4.5-.7,1.2-.7,1.9v6.1c0,.9.7,1.6,1.6,1.6h5.6v-2.1c0-1.1-.5-2.2-1.3-2.9Z"/>
  <path class="st3" d="M47.6,50l5.2-4.5c.4.5.7,1.2.7,1.9v6.1c0,.9-.7,1.6-1.6,1.6h-5.6v-2.1c0-1.1.5-2.2,1.3-2.9Z"/>
  <path class="st4" d="M25.4,40.1l7.3,6.4s-2,1-4.6,3c-.5.4-1.3.2-1.6-.3l-3.4-7.3,1.1-1.6c.3-.4.8-.5,1.2-.1Z"/>
  <path class="st4" d="M40,40.1l-7.3,6.4s2,1,4.6,3c.5.4,1.3.2,1.6-.3l3.4-7.3-1.1-1.6c-.3-.4-.8-.5-1.2-.1Z"/>
  <path class="st0" d="M37.6,13.4l.7,5.1c3.4.7,3.9,5.9,4,7.4,0,.3.1.5.3.8l1.3,2s-.4-3.2,1.6-5.4c0,0,.7-12.9-7.9-9.8Z"/>
  <path class="st5" d="M23.1,12l1.2.8c-5.3,3.8-4.3,10.4-4.3,10.4,1.6,1.6,1.6,5.4,1.6,5.4l1.6-1.6s-.6-4.5,2.4-6.2c2.8-1.6,5.2-.8,7.7-.8,6.7,0,8.5-2.4,8.2-5.4-.2-1.5-2.6-4.8-8.8-4.7-2.5,0-7.2.8-9.6,2Z"/>
</svg>