<?xml version="1.0" encoding="UTF-8"?>
<svg id="Layer_1" xmlns="http://www.w3.org/2000/svg" xmlns:xlink="http://www.w3.org/1999/xlink" version="1.1" viewBox="0 0 127 126">
  <!-- Generator: Adobe Illustrator 29.3.0, SVG Export Plug-In . SVG Version: 2.1.0 Build 146)  -->
  <defs>
    <style>
      .st0 {
        fill: #444;
      }

      .st1 {
        fill: #edc391;
      }

      .st2 {
        fill: url(#linear-gradient);
      }

      .st3 {
        fill: #f7dece;
      }

      .st4 {
        fill: #3490dc;
      }

      .st5 {
        fill: #312d2d;
      }

      .st6 {
        fill: #dba689;
      }
    </style>
    <linearGradient id="linear-gradient" x1="63.4" y1="125.9" x2="63.4" y2=".2" gradientTransform="translate(0 125.9) scale(1 -1)" gradientUnits="userSpaceOnUse">
      <stop offset="0" stop-color="#afc1dc"/>
      <stop offset="1" stop-color="#e2e5ed"/>
    </linearGradient>
  </defs>
  <circle class="st2" cx="63.4" cy="62.8" r="62.8"/>
  <path class="st1" d="M91.6,69.9h-55.1c-5.9,0-10.8,4.7-10.8,10.4s4.9,10.4,10.8,10.4h55.1c5.9,0,10.8-4.7,10.8-10.4,0-5.7-4.9-10.4-10.8-10.4Z"/>
  <path class="st3" d="M93.4,43.5c-7.1-10.8-16.2-14.5-29.5-14.5s-22.4,3.7-29.5,14.5c-5.2,7.9-6.4,20.3-4.8,33.1,1.5,12.3,2.8,19.1,10.5,26,6.6,6,15.7,7.3,23.4,7.3h1c7.7,0,16.8-1.3,23.4-7.3,7.6-6.9,8.9-13.7,10.5-26,1.6-12.8.3-25.2-4.8-33.1Z"/>
  <path class="st5" d="M74.9,44.6c.1-.1.2-.2.3-.3,0,0,.1-.2.2-.3.2-.2.3-.4.5-.6h0c.1-.3.3-.5.4-.7,0,0,0-.1.1-.2.1-.2.3-.4.4-.7,0,0,0,0,0-.1.3-.6.5-1.2.7-1.8h0c.4-1.4.6-2.8.6-4.5,0-3.3-1.2-5.9-3-7.8,0,0,0,0,0,0-.1-.1-.3-.3-.4-.4h0c-.2-.3-.3-.4-.5-.6-.1-.1-.3-.2-.4-.4,0,0,0,0-.1,0l-.5-.4s0,0,0,0c-.6-.4-1.2-.8-1.8-1.1,0,0,0,0,0,0-.2,0-.4-.2-.6-.3h-.2c-.2-.1-.3-.2-.5-.3,0,0-.1,0-.2,0-.2,0-.3-.1-.5-.2h-.2c-.2-.1-.3-.2-.5-.2,0,0-.1,0-.2,0-.2,0-.3,0-.5-.1h-.2c-.2,0-.3-.1-.5-.2,0,0-.1,0-.2,0-.4,0-.9-.2-1.3-.2,0,0-.1,0-.2,0-.2,0-.3,0-.5,0,0,0-.2,0-.3,0-.1,0-.2,0-.4,0s-.2,0-.3,0-.1,0-.2,0h0c-.3,0-.6,0-.9,0,0,0-.1,0-.2,0-.3,0-.6,0-.9.1-3.6.6-6.6,2.5-8.4,4.4-1.1,1.1-1.8,2.2-2,3h0c2.3-.6,5.4-1.1,8.8-1.3,4.6-.3,8.4,2.3,8.2,6.3,0,.5,0,.9-.2,1.4h0c0,.3,0,.5-.1.6,0,0,0,.1,0,.2,0,.1,0,.3-.1.4,0,0,0,.2-.1.2,0,.1-.1.2-.2.3,0,0,0,.2-.1.3,0,0-.1.2-.2.3,0,0-.1.2-.2.3,0,0-.1.1-.2.2,0,.1-.2.2-.3.3,0,0,0,0,0,0-.1.1-.3.3-.4.4,0,0,0,0,0,0-.1,0-.3.2-.4.3,0,0,0,0-.1,0-.1,0-.3.2-.4.2,0,0,0,0-.1,0-.1,0-.3.1-.4.2,0,0,0,0-.1,0-.2,0-.3.1-.5.2,0,0,0,0,0,0-.8.2-1.7.3-2.5.3-2.6,0-5.3-1-6.9-2.4-.1-.1-.3-.2-.5-.2,0,0,0,0-.1,0,0,0,0,0,0,0,0,0,0,0-.1,0,0,0-.1,0-.2.1,0,0,0,0,0,0,0,0,0,.1-.1.2,0,0,0,0,0,0,0,0,0,.2,0,.3.2,2.2,1.6,5,5,7.1,3.2,2,9.8,2,14.6-1.2h.1c.1-.2.3-.3.4-.4,0,0,.1,0,.2-.1.2-.2.4-.3.6-.5l.3-.3c.1,0,.2-.2.3-.3Z"/>
  <path class="st4" d="M74.9,44.6c.1-.1.2-.2.3-.3,0,0,.1-.2.2-.3.2-.2.3-.4.5-.6h0c.1-.3.3-.5.4-.7,0,0,0-.1.1-.2.1-.2.3-.4.4-.7,0,0,0,0,0-.1.3-.6.5-1.2.7-1.8h0c.4-1.4.6-2.8.6-4.5,0-3.3-1.2-5.9-3-7.8,0,0,0,0,0,0-.1-.1-.3-.3-.4-.4h0c-.2-.3-.3-.4-.5-.6-.1-.1-.3-.2-.4-.4,0,0,0,0-.1,0l-.5-.4s0,0,0,0c-.6-.4-1.2-.8-1.8-1.1,0,0,0,0,0,0-.2,0-.4-.2-.6-.3h-.2c-.2-.1-.3-.2-.5-.3,0,0-.1,0-.2,0-.2,0-.3-.1-.5-.2h-.2c-.2-.1-.3-.2-.5-.2,0,0-.1,0-.2,0-.2,0-.3,0-.5-.1h-.2c-.2,0-.3-.1-.5-.2,0,0-.1,0-.2,0-.4,0-.9-.2-1.3-.2,0,0-.1,0-.2,0-.2,0-.3,0-.5,0,0,0-.2,0-.3,0-.1,0-.2,0-.4,0s-.2,0-.3,0-.1,0-.2,0h0c-.3,0-.6,0-.9,0,0,0-.1,0-.2,0-.3,0-.6,0-.9.1-3.6.6-6.6,2.5-8.4,4.4-1.1,1.1-1.8,2.2-2,3h0c2.3-.6,5.4-1.1,8.8-1.3,4.6-.3,8.4,2.3,8.2,6.3,0,.5,0,.9-.2,1.4h0c0,.3,0,.5-.1.6,0,0,0,.1,0,.2,0,.1,0,.3-.1.4,0,0,0,.2-.1.2,0,.1-.1.2-.2.3,0,0,0,.2-.1.3,0,0-.1.2-.2.3,0,0-.1.2-.2.3,0,0-.1.1-.2.2,0,.1-.2.2-.3.3,0,0,0,0,0,0-.1.1-.3.3-.4.4,0,0,0,0,0,0-.1,0-.3.2-.4.3,0,0,0,0-.1,0-.1,0-.3.2-.4.2,0,0,0,0-.1,0-.1,0-.3.1-.4.2,0,0,0,0-.1,0-.2,0-.3.1-.5.2,0,0,0,0,0,0-.8.2-1.7.3-2.5.3-2.6,0-5.3-1-6.9-2.4-.1-.1-.3-.2-.5-.2,0,0,0,0-.1,0,0,0,0,0,0,0,0,0,0,0-.1,0,0,0-.1,0-.2.1,0,0,0,0,0,0,0,0,0,.1-.1.2,0,0,0,0,0,0,0,0,0,.2,0,.3.2,2.2,1.6,5,5,7.1,3.2,2,9.8,2,14.6-1.2h.1c.1-.2.3-.3.4-.4,0,0,.1,0,.2-.1.2-.2.4-.3.6-.5l.3-.3c.1,0,.2-.2.3-.3Z"/>
  <path class="st6" d="M67.9,80.3c0,0-.2,0-.3,0h-6.9c-.1,0-.2,0-.3,0-.6.3-1,.9-.7,1.6.3.7,1.7,2.6,4.4,2.6s4.1-1.9,4.4-2.6c.3-.7,0-1.3-.7-1.6Z"/>
  <path class="st5" d="M48.1,81c2.6,0,4.8-2.2,4.8-5s-2.1-5-4.8-5-4.8,2.2-4.8,5,2.1,5,4.8,5Z"/>
  <path class="st5" d="M80.3,81c2.6,0,4.8-2.2,4.8-5s-2.1-5-4.8-5-4.8,2.2-4.8,5,2.1,5,4.8,5Z"/>
  <path class="st0" d="M71.1,90.6c-2.7,1.6-11.4,1.6-14,0-1.5-.9-3.1.5-2.4,1.9.6,1.4,5.4,4.5,9.5,4.5s8.8-3.2,9.4-4.5c.6-1.4-.9-2.8-2.4-1.9Z"/>
</svg>